# xmcd
#
# Track frame offsets: 
#        150
#        29474
#        59370
#        85431
#        110834
#        138980
#        159402
#        182897
#        215836
#        239422
#
# Disc length: 3624 seconds
#
# Revision: 3
# Processed by: cddbd v1.5.1PL0 Copyright (c) Steve Scherf et al.
# Submitted via: ExactAudioCopy v0.95a5
#
DISCID=950e260a
DTITLE=Yeskim - A musical voyage to India
DYEAR=1998
DGENRE=World Music
TTITLE0=Pichola
TTITLE1=Dancing Shiva
TTITLE2=At the Tigre's Pace
TTITLE3=The Birth of Tsje Pyan
TTITLE4=Redish Jaipur
TTITLE5=Temple of Brahma
TTITLE6=Sita's Lullaby
TTITLE7=Divali Illumination
TTITLE8=Ode to Sarasvati
TTITLE9=Ganesh's Gift
EXTD=India - The cradle of Hinduism
EXTT0=
EXTT1=
EXTT2=
EXTT3=
EXTT4=
EXTT5=
EXTT6=
EXTT7=
EXTT8=
EXTT9=
PLAYORDER=
